# xmcd
#
# Track frame offsets: 
#        150
#        15768
#        28340
#        43361
#        57465
#        72053
#        86308
#        99786
#        125639
#        138271
#        150328
#        164881
#        177315
#        192352
#        206761
#        219982
#        235281
#        250490
#        263687
#        274663
#
# Disc length: 3864 seconds
#
# Revision: 1
# Processed by: cddbd v1.5.2PL0 Copyright (c) Steve Scherf et al.
# Submitted via: ExactAudioCopy v0.95a5
#
DISCID=1c0f1614
DTITLE=Duke Ellington - The Golden Years of Duke Ellington [CD3]
DYEAR=2003
DGENRE=Jazz
TTITLE0=Black and Tan Fantasy
TTITLE1=Stevedore Stomp
TTITLE2=Hot and Bothered
TTITLE3=East St Louis Toodle-Oo
TTITLE4=The Mooche
TTITLE5=Old Man Blues
TTITLE6=Jungle Nights in Harlem
TTITLE7=Tiger Rag Part 1
TTITLE8=Sweet Jazz O' mine
TTITLE9=Sing you sinners
TTITLE10=Jazz Cocktail
TTITLE11=Ko-Ko
TTITLE12=Jack the Bear
TTITLE13=A Gathering in the Clearing
TTITLE14=Hy'a Sue
TTITLE15=Stomp Look and Listen
TTITLE16=On A Turquoise Cloud
TTITLE17=The Clothed Woman
TTITLE18=Im Checking Out, Goo'm Bye
TTITLE19=I got it Bad (and that aint good)
EXTD=
EXTT0=
EXTT1=
EXTT2=
EXTT3=
EXTT4=
EXTT5=
EXTT6=
EXTT7=
EXTT8=
EXTT9=
EXTT10=
EXTT11=
EXTT12=
EXTT13=
EXTT14=
EXTT15=
EXTT16=
EXTT17=
EXTT18=
EXTT19=
PLAYORDER=
